<?xml version="1.0" encoding="UTF-8"?>
<svg xmlns="http://www.w3.org/2000/svg" xmlns:xlink="http://www.w3.org/1999/xlink" width="810pt" height="1439.999935pt" viewBox="0 0 810 1439.999935" version="1.2">
<g id="surface1">
<path style=" stroke:none;fill-rule:nonzero;fill:rgb(100%,32.159424%,70.588684%);fill-opacity:1;" d="M 291.601562 558 L 518.398438 558 C 519.992188 558 521.578125 558.078125 523.164062 558.234375 C 524.746094 558.390625 526.320312 558.625 527.882812 558.933594 C 529.441406 559.246094 530.984375 559.628906 532.507812 560.09375 C 534.03125 560.554688 535.527344 561.089844 537 561.699219 C 538.46875 562.308594 539.90625 562.988281 541.308594 563.738281 C 542.714844 564.488281 544.078125 565.304688 545.402344 566.191406 C 546.722656 567.074219 548 568.023438 549.230469 569.03125 C 550.460938 570.042969 551.640625 571.109375 552.765625 572.234375 C 553.890625 573.359375 554.957031 574.539062 555.96875 575.769531 C 556.976562 577 557.925781 578.277344 558.808594 579.597656 C 559.695312 580.921875 560.511719 582.285156 561.261719 583.691406 C 562.011719 585.09375 562.691406 586.53125 563.300781 588 C 563.910156 589.472656 564.445312 590.96875 564.90625 592.492188 C 565.371094 594.015625 565.753906 595.558594 566.066406 597.117188 C 566.375 598.679688 566.609375 600.253906 566.765625 601.835938 C 566.921875 603.421875 567 605.007812 567 606.601562 L 567 833.398438 C 567 834.992188 566.921875 836.578125 566.765625 838.164062 C 566.609375 839.746094 566.375 841.320312 566.066406 842.882812 C 565.753906 844.441406 565.371094 845.984375 564.90625 847.507812 C 564.445312 849.03125 563.910156 850.527344 563.300781 852 C 562.691406 853.46875 562.011719 854.90625 561.261719 856.308594 C 560.511719 857.714844 559.695312 859.078125 558.808594 860.402344 C 557.925781 861.722656 556.976562 863 555.96875 864.230469 C 554.957031 865.460938 553.890625 866.640625 552.765625 867.765625 C 551.640625 868.890625 550.460938 869.957031 549.230469 870.96875 C 548 871.976562 546.722656 872.925781 545.402344 873.808594 C 544.078125 874.695312 542.714844 875.511719 541.308594 876.261719 C 539.90625 877.011719 538.46875 877.691406 537 878.300781 C 535.527344 878.910156 534.03125 879.445312 532.507812 879.90625 C 530.984375 880.371094 529.441406 880.753906 527.882812 881.066406 C 526.320312 881.375 524.746094 881.609375 523.164062 881.765625 C 521.578125 881.921875 519.992188 882 518.398438 882 L 291.601562 882 C 290.007812 882 288.421875 881.921875 286.835938 881.765625 C 285.253906 881.609375 283.679688 881.375 282.117188 881.066406 C 280.558594 880.753906 279.015625 880.371094 277.492188 879.90625 C 275.96875 879.445312 274.472656 878.910156 273 878.300781 C 271.53125 877.691406 270.09375 877.011719 268.691406 876.261719 C 267.285156 875.511719 265.921875 874.695312 264.597656 873.808594 C 263.277344 872.925781 262 871.976562 260.769531 870.96875 C 259.539062 869.957031 258.359375 868.890625 257.234375 867.765625 C 256.109375 866.640625 255.042969 865.460938 254.03125 864.230469 C 253.023438 863 252.074219 861.722656 251.191406 860.402344 C 250.304688 859.078125 249.488281 857.714844 248.738281 856.308594 C 247.988281 854.90625 247.308594 853.46875 246.699219 852 C 246.089844 850.527344 245.554688 849.03125 245.09375 847.507812 C 244.628906 845.984375 244.246094 844.441406 243.933594 842.882812 C 243.625 841.320312 243.390625 839.746094 243.234375 838.164062 C 243.078125 836.578125 243 834.992188 243 833.398438 L 243 606.601562 C 243 605.007812 243.078125 603.421875 243.234375 601.835938 C 243.390625 600.253906 243.625 598.679688 243.933594 597.117188 C 244.246094 595.558594 244.628906 594.015625 245.09375 592.492188 C 245.554688 590.96875 246.089844 589.472656 246.699219 588 C 247.308594 586.53125 247.988281 585.09375 248.738281 583.691406 C 249.488281 582.285156 250.304688 580.921875 251.191406 579.597656 C 252.074219 578.277344 253.023438 577 254.03125 575.769531 C 255.042969 574.539062 256.109375 573.359375 257.234375 572.234375 C 258.359375 571.109375 259.539062 570.042969 260.769531 569.03125 C 262 568.023438 263.277344 567.074219 264.597656 566.191406 C 265.921875 565.304688 267.285156 564.488281 268.691406 563.738281 C 270.09375 562.988281 271.53125 562.308594 273 561.699219 C 274.472656 561.089844 275.96875 560.554688 277.492188 560.09375 C 279.015625 559.628906 280.558594 559.246094 282.117188 558.933594 C 283.679688 558.625 285.253906 558.390625 286.835938 558.234375 C 288.421875 558.078125 290.007812 558 291.601562 558 Z M 291.601562 558 "/>
<path style=" stroke:none;fill-rule:nonzero;fill:rgb(100%,100%,100%);fill-opacity:1;" d="M 410.695312 593.4375 C 341.71875 593.4375 306.914062 642.796875 306.914062 684.5625 C 306.914062 709.242188 316.40625 731.390625 336.65625 739.617188 C 339.820312 740.882812 342.984375 739.617188 344.25 736.453125 L 346.78125 724.429688 C 348.046875 720.632812 347.414062 719.367188 344.882812 716.203125 C 339.1875 709.242188 335.390625 700.382812 335.390625 687.726562 C 335.390625 651.023438 362.601562 618.117188 406.898438 618.117188 C 446.132812 618.117188 467.648438 642.164062 467.648438 673.804688 C 467.648438 716.203125 448.664062 751.007812 421.453125 751.007812 C 406.265625 751.007812 394.875 738.984375 398.671875 723.164062 C 402.46875 704.8125 411.328125 685.195312 411.328125 671.90625 C 411.328125 659.882812 405 649.757812 391.710938 649.757812 C 375.890625 649.757812 363.867188 666.210938 363.867188 687.726562 C 363.867188 701.015625 368.296875 710.507812 368.296875 710.507812 L 349.3125 789.609375 C 344.25 813.023438 348.679688 842.132812 349.3125 844.664062 C 349.3125 846.5625 351.84375 847.195312 352.476562 845.929688 C 353.742188 844.03125 372.726562 821.25 379.054688 798.46875 L 389.179688 757.96875 C 394.242188 768.09375 408.796875 776.320312 424.617188 776.320312 C 471.445312 776.320312 503.085938 733.921875 503.085938 676.96875 C 503.085938 633.304688 466.382812 593.4375 410.695312 593.4375 Z M 410.695312 593.4375 "/>
</g>
</svg>
